<svg width="24" height="24" viewBox="0 0 24 24" fill="none" xmlns="http://www.w3.org/2000/svg">
<path d="M18.6121 5.92878V0.656279H15.5754V3.25597L12.0459 0.170654L0.189941 10.3266L1.99239 12.271L3.82031 10.6913V23.8125H20.1795V10.7888L21.978 12.3685L23.8285 10.4728L18.6121 5.92878ZM15.9633 15.8738C15.2894 16.5178 14.3509 16.7447 13.4889 16.5657L12.5994 17.4169L11.1437 17.1347L11.2926 18.376L10.1759 18.1013L10.3248 19.3294L9.1728 19.0482L9.31484 20.296L7.29884 20.4347L7.24888 18.6038L11.4445 14.5885C11.2642 13.771 11.5081 12.8785 12.1743 12.241C13.2205 11.2407 14.9103 11.2303 15.9633 12.2382C17.0154 13.245 17.0115 14.8697 15.9633 15.8738ZM14.6585 12.6853C14.4254 12.9094 14.4283 13.2722 14.6585 13.4925C14.8887 13.7128 15.2649 13.7203 15.5019 13.4925C15.7361 13.2685 15.7361 12.9094 15.5019 12.6853C15.2688 12.4613 14.8926 12.4613 14.6585 12.6853Z" fill="#D19B33"/>
</svg>
